<?xml version="1.0" encoding="UTF-8" standalone="no"?>
<!-- Generator: Adobe Illustrator 16.0.0, SVG Export Plug-In . SVG Version: 6.00 Build 0)  -->

<svg
   xmlns:dc="http://purl.org/dc/elements/1.1/"
   xmlns:cc="http://creativecommons.org/ns#"
   xmlns:rdf="http://www.w3.org/1999/02/22-rdf-syntax-ns#"
   xmlns:svg="http://www.w3.org/2000/svg"
   xmlns="http://www.w3.org/2000/svg"
   xmlns:sodipodi="http://sodipodi.sourceforge.net/DTD/sodipodi-0.dtd"
   xmlns:inkscape="http://www.inkscape.org/namespaces/inkscape"
   version="1.1"
   id="Capa_1"
   x="0px"
   y="0px"
   width="45.001px"
   height="45.001px"
   viewBox="0 0 45.001 45.001"
   style="enable-background:new 0 0 45.001 45.001;"
   xml:space="preserve"
   sodipodi:docname="restaurant-covered-plate-on-a-hand.svg"
   inkscape:version="0.92.3 (2405546, 2018-03-11)"><metadata
   id="metadata3831"><rdf:RDF><cc:Work
       rdf:about=""><dc:format>image/svg+xml</dc:format><dc:type
         rdf:resource="http://purl.org/dc/dcmitype/StillImage" /></cc:Work></rdf:RDF></metadata><defs
   id="defs3829" /><sodipodi:namedview
   pagecolor="#ffffff"
   bordercolor="#666666"
   borderopacity="1"
   objecttolerance="10"
   gridtolerance="10"
   guidetolerance="10"
   inkscape:pageopacity="0"
   inkscape:pageshadow="2"
   inkscape:window-width="1853"
   inkscape:window-height="1025"
   id="namedview3827"
   showgrid="false"
   inkscape:zoom="18.755139"
   inkscape:cx="18.721703"
   inkscape:cy="22.5005"
   inkscape:window-x="67"
   inkscape:window-y="27"
   inkscape:window-maximized="1"
   inkscape:current-layer="g3794" />
<g
   id="g3794">
	<path
   d="M42.73,21.939c-0.525-8.071-6.996-14.56-15.197-15.313c0.066-0.182,0.109-0.375,0.109-0.58   c0-0.942-0.767-1.705-1.705-1.705c-0.941,0-1.707,0.763-1.707,1.705c0,0.205,0.043,0.398,0.106,0.58   C16.139,7.379,9.668,13.868,9.141,21.939h-2.27c0,1.139,0.924,2.063,2.064,2.063h1.851c-2.144,1.083-5.095,3.995-5.095,3.995   l6.771,6.841l2.418-1.446h13.78l9.389-9.39h4.889c1.14,0,2.063-0.924,2.063-2.063H42.73z M27.844,28.929c0,0-4.486,0-6.438,0   c-0.914,0-3.063-1.996-3.063-1.996s4.082,0,5.714,0c2.605,0,3.916-2.05,4.359-2.931h6.01C32.07,25.332,27.844,28.929,27.844,28.929   z M4.08,27.562l9.021,9.021l-4.08,4.078L0,31.64L4.08,27.562z"
   id="path3792"
   style="fill:#337ab7;fill-opacity:1;stroke:#2e6da4;stroke-opacity:1;stroke-width:0.9;stroke-miterlimit:4;stroke-dasharray:none"
   inkscape:export-xdpi="96"
   inkscape:export-ydpi="96" />
</g>
<g
   id="g3796">
</g>
<g
   id="g3798">
</g>
<g
   id="g3800">
</g>
<g
   id="g3802">
</g>
<g
   id="g3804">
</g>
<g
   id="g3806">
</g>
<g
   id="g3808">
</g>
<g
   id="g3810">
</g>
<g
   id="g3812">
</g>
<g
   id="g3814">
</g>
<g
   id="g3816">
</g>
<g
   id="g3818">
</g>
<g
   id="g3820">
</g>
<g
   id="g3822">
</g>
<g
   id="g3824">
</g>
</svg>